<?xml version="1.0" encoding="utf-8"?>
<!-- Generator: Adobe Illustrator 18.0.0, SVG Export Plug-In . SVG Version: 6.00 Build 0)  -->
<!DOCTYPE svg PUBLIC "-//W3C//DTD SVG 1.1//EN" "http://www.w3.org/Graphics/SVG/1.1/DTD/svg11.dtd">
<svg version="1.1" id="Layer_1" xmlns="http://www.w3.org/2000/svg" xmlns:xlink="http://www.w3.org/1999/xlink" x="0px" y="0px"
	 viewBox="0 0 200 200" style="enable-background:new 0 0 200 200;" xml:space="preserve">
<g>
	<path style="opacity:0.69;fill:#4052A3;" d="M112.8,24c-4.1,0-7.7,0.5-11.8,0.5c-3.1,0-6.1,0.5-9.7,0.5c-19.5,0-36.4,7.2-50.7,20.5
		c-8.2,8.2-13.8,18.4-17.4,29.7c-5.1,17.9-2,35.9,6.7,51.7c7.2,13.3,18.4,23,31.8,28.7c2,1,4.6,2,6.7,3.1c5.1,2.6,10.2,5.1,15.4,8.2
		c15.9,8.7,33.8,11.8,51.7,6.7c16.9-4.6,31.2-15.9,39.9-30.7c12.8-21.5,11.3-49.7-1.5-70.7C166.6,45.5,142,24,113.8,24
		C114.3,24,113.3,24,112.8,24L112.8,24L112.8,24z"/>
	<g>
		<g>
			<path style="fill:#1D2454;" d="M5.2,124.9l4.4-8.7c0.6-1.6,2.3-1.9,3.7-1.1c0,0,7.3,3.9,14.7,3.9c3.2,0,5.5-1.3,5.5-4
				c0-2.9-2.3-4.7-10.8-8.1C10.2,102,4.3,95.4,4.3,85.6s7.3-19,23.7-19c9.5,0,16.5,2.7,19.8,5c1.5,1,2.3,2.7,1.5,4.4l-4,8.2
				c-0.8,1.5-2.6,1.6-3.9,1.1c0,0-7.3-3.4-13.4-3.4c-3.9,0-5.5,1.6-5.5,3.7c0,2.9,2.9,3.9,8.9,6.3c12.4,4.8,21.8,10.2,21.8,22.7
				c0,10.6-9.4,19.7-25.6,19.7c-10.6,0-18.1-3.4-21.5-6C5.2,127.5,4.5,126.2,5.2,124.9z"/>
			<path style="fill:#1D2454;" d="M67.4,71.2c0-1.8,1.5-3.1,3.1-3.1h6.1c1.5,0,2.3,0.8,2.7,1.9l2.3,6c2.4-2.6,10.3-9.5,22.7-9.5
				c20.5,0,28.7,15.3,28.7,32.1v31c0,1.6-1.5,3.1-3.1,3.1h-13.2c-1.8,0-3.1-1.5-3.1-3.1V97.7c0-8.4-4.4-13.7-12.1-13.7
				c-8.4,0-13.6,5.8-15.2,10.2v35.5c0,2.3-1,3.1-4,3.1H70.5c-1.6,0-3.1-1.5-3.1-3.1V71.2z"/>
			<path style="fill:#1D2454;" d="M147.6,124.9l4.4-8.7c0.6-1.6,2.3-1.9,3.7-1.1c0,0,7.3,3.9,14.7,3.9c3.2,0,5.5-1.3,5.5-4
				c0-2.9-2.3-4.7-10.8-8.1c-12.4-4.8-18.2-11.5-18.2-21.3s7.3-19,23.7-19c9.5,0,16.5,2.7,19.8,5c1.5,1,2.3,2.7,1.5,4.4l-4,8.2
				c-0.8,1.5-2.6,1.6-3.9,1.1c0,0-7.3-3.4-13.4-3.4c-3.9,0-5.5,1.6-5.5,3.7c0,2.9,2.9,3.9,8.9,6.3c12.4,4.8,21.8,10.2,21.8,22.7
				c0,10.6-9.4,19.7-25.6,19.7c-10.6,0-18.1-3.4-21.5-6C147.6,127.5,146.9,126.2,147.6,124.9z"/>
		</g>
	</g>
</g>
</svg>
