<?xml version="1.0" encoding="utf-8"?>
<!-- Generator: Adobe Illustrator 18.0.0, SVG Export Plug-In . SVG Version: 6.00 Build 0)  -->
<!DOCTYPE svg PUBLIC "-//W3C//DTD SVG 1.1//EN" "http://www.w3.org/Graphics/SVG/1.1/DTD/svg11.dtd">
<svg version="1.1" id="Layer_1" xmlns="http://www.w3.org/2000/svg" xmlns:xlink="http://www.w3.org/1999/xlink" x="0px" y="0px"
	 viewBox="0 0 1200 768" style="enable-background:new 0 0 1200 768;" xml:space="preserve">
<g>
	<path style="fill:#EDF0F4;" d="M803.1,106.8c-2-1.8-4.3-3.4-6.6-4.7c-2.9-1.6-6.1-2.6-9.3-3.6c-1.1-0.3-2.2-0.7-3.4-0.9
		c-2.2-0.4-4.3-0.7-6.6-1c-1.3-0.2-2.6-0.3-3.9-0.3c-1.4,0-2.8,0-4.3,0.1c-2.2,0.2-4.5,0.4-6.6,1.2c-0.8,0.3-1.6,0.6-2.5,0.9
		c-1.6,0.9-2.8,2.2-3.8,3.8c-0.4,0.6-0.6,1.3-0.9,2c-0.2,0.1-0.4,0.2-0.6,0.2c-2.6,1.2-5.1,2.8-7.4,4.4c-2.6,1.9-5.2,3.9-7.6,6.1
		c-1.4,1.3-2.7,2.8-3.9,4.3c-1.7,2.1-3.2,4.3-4.5,6.7c-2.2,4.3-3.4,9.1-3.6,14c-0.1,2.4,0.2,4.7,0.8,7c0.6,2.5,1.6,5,2.8,7.4
		s2.8,4.4,4.5,6.4c1.7,2.1,4,3.6,6.1,5.1c1.5,1,3.2,1.9,4.8,2.6c2.5,1,4.9,2,7.4,2.6c2.4,0.6,4.8,0.9,7.3,1.2
		c1.9,0.2,3.9,0.3,5.9,0.2c4.5-0.2,9-1,13.2-2.7c2.5-0.9,4.8-2,7.1-3.3c2.5-1.4,4.7-3.1,6.9-4.7c1.4-1.1,2.8-2.3,4.1-3.6
		c2-2,3.6-4.2,5.3-6.4c2.8-3.6,4.7-7.8,6.3-12.1c0.6-1.7,1-3.3,1.3-5.1c0.4-2.5,0.7-5.1,0.6-7.6c-0.1-2.4-0.5-4.8-1-7.2
		c-0.4-1.6-1.1-3.2-1.7-4.7c-0.4-0.9-0.8-1.7-1.3-2.5c-0.9-1.5-2-2.8-3.1-4.1c-0.3-0.3-0.6-0.7-0.9-1
		C803.7,107.4,803.4,107.1,803.1,106.8L803.1,106.8L803.1,106.8z M790.1,122.7c0.4,0.6,0.7,1.2,1,1.7c0.2,0.8,0.5,1.7,0.6,2.5
		c0.1,1.1,0.1,2.1,0,3.2c-0.3,1.7-0.8,3.3-1.3,4.9c-1,2.3-2.3,4.4-3.8,6.5c-1.7,2.1-3.6,4-5.8,5.8c-2.3,1.7-4.7,3.1-7.4,4.3
		c-1.7,0.6-3.6,1.1-5.5,1.4c-2.2,0.2-4.5,0.2-6.7,0c-2.3-0.4-4.5-0.9-6.6-1.7c-1.3-0.6-2.6-1.3-3.8-2.1c-0.9-0.7-1.6-1.5-2.3-2.3
		c-0.6-0.9-1.2-1.9-1.7-2.9c-0.3-0.9-0.6-1.9-0.8-2.8c-0.1-0.9-0.1-2,0-2.9c0.2-1.2,0.6-2.4,0.9-3.6c0.8-1.7,1.7-3.2,2.7-4.7
		c1.8-2.2,3.8-4.3,6-6.1c0.7-0.6,1.5-1.3,2.2-1.8c2.4-1.7,4.8-3.3,7.5-4.6c0.1-0.1,0.2-0.1,0.3-0.2c0.5-0.1,0.9-0.1,1.3-0.2
		c1.5-0.2,3-0.2,4.6-0.2c1.7,0,3.2,0.2,4.9,0.3c1.3,0.2,2.7,0.6,4,0.9c1.4,0.4,2.9,0.9,4.3,1.3c1.3,0.6,2.5,1.3,3.6,2
		C789.2,121.8,789.7,122.2,790.1,122.7L790.1,122.7L790.1,122.7z"/>
	<path style="fill:#EDF0F4;" d="M590.3,423.1c-1.2-1.1-2.6-2.1-4-2.8c-1.8-0.9-3.7-1.6-5.6-2.2c-0.6-0.2-1.3-0.4-2.1-0.6
		c-1.3-0.2-2.7-0.5-4-0.6c-0.8-0.1-1.6-0.2-2.4-0.2c-0.9,0-1.7,0-2.6,0c-1.3,0.1-2.8,0.2-4,0.7c-0.5,0.2-0.9,0.4-1.5,0.6
		c-0.9,0.6-1.7,1.3-2.3,2.3c-0.2,0.4-0.4,0.8-0.6,1.2c-0.1,0.1-0.2,0.1-0.3,0.2c-1.6,0.7-3.1,1.7-4.5,2.7c-1.6,1.2-3.2,2.4-4.6,3.7
		c-0.9,0.8-1.7,1.7-2.4,2.6c-1,1.3-2,2.6-2.8,4.1c-1.3,2.7-2.1,5.5-2.1,8.5c-0.1,1.4,0.2,2.8,0.5,4.3c0.3,1.6,0.9,3.1,1.7,4.4
		c0.7,1.4,1.7,2.7,2.8,3.9c1,1.3,2.4,2.2,3.7,3.2c0.9,0.6,1.9,1.2,2.9,1.6c1.5,0.6,2.9,1.2,4.5,1.6c1.4,0.4,2.9,0.6,4.4,0.7
		c1.2,0.2,2.4,0.2,3.6,0.2c2.8-0.1,5.5-0.6,8-1.7c1.5-0.6,2.9-1.2,4.3-2c1.5-0.9,2.8-1.9,4.2-2.9c0.9-0.6,1.7-1.3,2.5-2.1
		c1.2-1.2,2.2-2.5,3.2-3.9c1.7-2.2,2.8-4.7,3.8-7.4c0.4-1,0.6-2.1,0.8-3.1c0.2-1.5,0.5-3.1,0.4-4.6c-0.1-1.4-0.2-2.9-0.6-4.3
		c-0.2-0.9-0.7-1.9-1.1-2.8c-0.2-0.6-0.5-1-0.8-1.5c-0.6-0.9-1.2-1.7-1.8-2.5c-0.2-0.2-0.4-0.4-0.6-0.6
		C590.6,423.4,590.4,423.2,590.3,423.1L590.3,423.1L590.3,423.1z M582.4,432.7c0.2,0.3,0.4,0.7,0.6,1.1c0.2,0.5,0.3,1,0.4,1.5
		c0.1,0.6,0,1.3,0,2c-0.2,1-0.5,2-0.8,3c-0.6,1.3-1.4,2.7-2.3,4c-1,1.3-2.2,2.5-3.5,3.5c-1.4,1-2.8,1.9-4.4,2.6
		c-1.1,0.4-2.1,0.7-3.3,0.9c-1.3,0.1-2.7,0.1-4.1,0c-1.3-0.2-2.7-0.6-4-1c-0.8-0.4-1.6-0.8-2.3-1.3c-0.5-0.5-0.9-0.9-1.4-1.4
		c-0.4-0.6-0.7-1.2-1-1.8c-0.2-0.6-0.3-1.1-0.5-1.7c0-0.6,0-1.2,0-1.8c0.2-0.7,0.3-1.5,0.6-2.2c0.5-1,1-1.9,1.7-2.8
		c1.1-1.3,2.3-2.6,3.6-3.7c0.5-0.4,0.9-0.7,1.3-1.1c1.4-1,2.9-2.1,4.5-2.8c0.1,0,0.2-0.1,0.2-0.1c0.2,0,0.6-0.1,0.8-0.2
		c0.9-0.1,1.8-0.2,2.8-0.2s2,0.1,2.9,0.2c0.8,0.2,1.6,0.3,2.5,0.6s1.7,0.6,2.6,0.9c0.8,0.3,1.5,0.7,2.2,1.2
		C581.8,432.1,582.1,432.4,582.4,432.7L582.4,432.7L582.4,432.7z"/>
	<path style="fill:#EDF0F4;" d="M463.2,157.6c-0.8-0.8-1.7-1.3-2.8-1.6c-0.6-0.2-1.1-0.2-1.7-0.2s-1.1,0.1-1.7,0.2
		c-1.2,0.2-2.4,1-3.3,1.7c-0.7,0.5-1.4,1-2.1,1.5c-1.3,0.9-2.7,2-4,2.9c-2.7,2-5.5,4-8.1,5.9c-0.4,0.2-0.7,0.6-1.1,0.8v-0.1
		c-0.6-1.2-1.2-2.5-1.8-3.6c-0.7-1.6-1.5-3.2-2.1-4.7c-0.3-0.4-0.6-0.9-1-1.3c-0.8-0.8-1.7-1.3-2.8-1.7c-0.6-0.2-1.1-0.2-1.7-0.2
		c-1.1,0-2.2,0.3-3.2,0.9c-1.4,0.9-2.5,2.2-2.9,3.8c-0.1,0.6-0.2,1.1-0.2,1.7c0,1.2,0.3,2.2,0.9,3.2c0.8,1.7,1.6,3.5,2.4,5.2
		c0.6,1.3,1.3,2.6,2,3.9c0.2,0.2,0.3,0.5,0.4,0.8c-0.6,0.5-1.2,1-1.8,1.5c-1.4,1.3-2.8,2.5-4.2,3.8c-2.2,2.1-4.3,4.3-6.7,6.2
		c-0.6,0.4-1,0.7-1.6,1c-1.4,0.9-2.5,2.2-2.9,3.8c-0.5,1.7-0.2,3.4,0.6,4.9c1.7,2.9,5.8,4.1,8.7,2.3c4.3-2.7,7.8-6.5,11.5-9.9
		c1-0.9,2.1-1.8,3.1-2.8c1.1,1.6,2.3,3.2,3.5,4.7c1.2,1.6,2.4,3.1,3.6,4.6c0.2,0.2,0.5,0.6,0.6,0.8c0.7,0.8,1.4,1.4,2.4,2.1
		c1.1,0.8,2.5,1.1,3.7,1.2c1.2,0.1,2.5-0.2,3.4-0.9c0.5-0.3,1-0.6,1.4-1.1c0.8-0.8,1.3-1.7,1.6-2.7s0.3-2.4,0-3.4
		c-0.2-0.8-0.7-1.7-1.2-2.5c-0.7-1.2-1.8-2.1-3-2.5c-0.2-0.2-0.4-0.5-0.6-0.7c-0.4-0.5-0.8-1-1.2-1.5c-0.9-1.2-1.9-2.4-2.7-3.6
		c-0.6-0.8-1-1.6-1.6-2.4c4.2-3.2,8.5-6.2,12.7-9.3c0.7-0.6,1.4-1,2.1-1.5c0.4-0.3,0.8-0.6,1.3-0.9c0.2-0.1,0.3-0.2,0.5-0.3
		c0.6-0.3,1-0.8,1.5-1.2c0.8-0.6,1.4-2,1.7-2.9C465.5,161.5,464.8,159.2,463.2,157.6z"/>
	<path style="fill:#EDF0F4;" d="M869.2,248c-1.3,1.2-2.3,2.6-2.9,4.2c-0.2,0.3-0.3,0.6-0.4,0.9c-0.2,0.7-0.5,2.1-0.6,3.1
		c-0.2,1.2,0,2.5,0.2,3.6c0.1,0.6,0.2,1,0.4,1.5c0.3,1,0.5,2,0.6,3c0.1,2.4,0.1,4.8,0.1,7.2c0.1,4.1,0.3,8.1,0.6,12.3
		c0.2,3,0.9,6.1,1.5,9c0.6,3,1.4,6,2.3,9c1.4,4.8,3,9.6,4.7,14.2c-2.8-0.2-5.5-0.4-8.2-0.6c-2.9-0.2-5.9-0.3-8.8-0.8
		c-3-0.5-6-0.9-9-1.5c-1.5-0.2-3-0.6-4.5-0.7c-0.9-0.2-1.8-0.2-2.8-0.4c-3.1-0.3-6-0.3-9.1,0c-1.7,0.2-3.6,0.8-5.1,1.6
		c-2.6,1.3-3.7,2.7-5.5,4.8c-0.3,0.3-0.6,0.7-0.8,1.1c-0.8,1.3-1.5,2.7-2.1,4.1s-0.8,3.2-1.1,4.6c-0.7,3.9-0.4,7.9-0.1,11.9
		c0.2,3.1,0.8,6.2,1.5,9.2c1.1,4.8,2.8,9.5,4.4,14.2c1,3,2.1,6,3.2,9c0.8,2.6,1.6,5.2,2.4,7.9c-1.8,0-3.7,0-5.5,0
		c-6,0.1-11.9-1-17.7-2.1c-6.3-1.1-13.1-2.3-19.3,0.3c-2.4,1-4.2,2.7-5.7,4.7c-1.4,1.9-1.9,4-2.2,6.3c-0.2,1.7,0,3.4,0.2,5.1
		c0.2,1.4,0.4,2.8,0.6,4.3c0.9,6,2.2,12,3.6,18c1.4,6.2,2.8,12.5,4.2,18.7c0.9,4.3,2.1,8.5,3.2,12.7c-0.3-0.1-0.6-0.2-0.9-0.3
		c-2.8-1-5.6-2.2-8.4-3.4c-3.6-1.8-7.2-3.8-10.8-5.9c-4.3-2.5-8.5-5.2-12.5-8.2c-2.4-1.8-5.9-2.3-8.7-1.7c-3.1,0.6-5.9,2.5-7.6,5.1
		c-1.7,2.5-2.3,5.7-1.7,8.7c0.3,1,0.6,2,1,3c0.9,1.9,2.3,3.5,4,4.6c2.8,2.1,5.7,4,8.5,5.9c2.4,1.5,4.8,3.1,7.3,4.4
		c3,1.7,6,3.2,9.2,4.7c3.5,1.7,7,3.3,10.7,4.7c6.4,2.5,13.3,3.8,20.2,4.7c0.6,0.1,1.3,0.2,2,0.2c1.3,0.2,2.5,0,3.9-0.2
		c1.3-0.1,2.4-0.6,3.6-1.1c1.1-0.5,2.1-1.1,2.8-2c1.5-1.3,2.7-3.1,3.3-5c0.9-2.8,0.9-4.8,0.6-7.8c-0.1-0.9-0.2-1.9-0.4-2.8
		s-0.4-1.7-0.6-2.5c-0.6-2.8-1.4-5.7-2.2-8.5c-3.2-12.3-6-24.7-8.7-37.2c-0.4-2-0.9-4-1.3-6c0.4,0.1,0.8,0.2,1.2,0.2
		c3,0.6,6,1.1,9,1.5c3.2,0.3,6.3,0.5,9.5,0.4c2.8,0,5.8-0.1,8.6,0.2c1.5,0.2,3,0.3,4.5,0.5c0.7,0.1,1.3,0.2,2.1,0.2
		c0.6,0.1,1.1,0.1,1.7,0.1c1.2,0,2.8,0,4-0.4c2.7-0.9,4-1.3,6.2-3.2c1.9-1.6,3.1-3.8,4-6.1c0.5-1.2,0.8-2.8,0.8-4.3
		c-0.1-1.7-0.1-3.2-0.5-4.8c-0.3-1.3-0.7-2.7-1.1-4c-0.8-2.9-1.6-5.9-2.5-8.9c-1.3-4.1-2.6-8.2-4-12.3c-1.1-3.2-2.3-6.5-3.4-9.7
		c-0.8-2.7-1.6-5.3-2.2-8.1c-0.6-2.4-0.9-4.7-1-7.1c0-0.2,0-0.3,0-0.4c2.1,0.2,4.2,0.6,6.2,1c3,0.6,6,1.1,9,1.5
		c6.2,0.7,12.3,0.9,18.4,1.5c3.1,0.3,6.2,0.8,9.3,0.6c1.3-0.1,2.5-0.1,3.8-0.2c1.2-0.2,3-0.9,3.6-1.2c0.5-0.2,0.8-0.3,1.2-0.6
		c1.1-0.7,2.3-1.4,3.2-2.3c1.9-1.7,3.8-4.3,4.4-7c0.3-1.3,0.7-2.7,0.8-4s-0.1-2.8-0.2-4.1c-0.1-1.1-0.5-2.2-0.9-3.3
		c-0.8-2.5-1.7-4.9-2.5-7.4c-0.7-2.1-1.5-4.3-2.2-6.5c-1.4-4.4-2.7-8.8-3.8-13.3c-1.1-4.3-1.7-8.7-2.1-13.1c-0.2-3.6-0.2-7-0.2-10.6
		c0-2-0.2-4-0.2-5.9c-0.1-0.9-0.2-1.8-0.4-2.7c-0.2-0.8-0.5-1.6-0.6-2.4c-0.2-1.3-0.6-2.6-1.3-3.8c-0.6-0.9-1.2-2-1.9-2.8
		c-1.9-2-2.7-2.3-5.1-3.4c-0.9-0.2-1.9-0.4-2.8-0.6c-2.1-0.2-4,0.2-5.8,1.1C871,246.9,870.1,247.4,869.2,248L869.2,248L869.2,248z"
		/>
	<path style="fill:#EDF0F4;" d="M359.8-17.7c-1.1,0.6-2.1,1.3-3.2,2c-2.1,1.3-4,2.7-5.9,4.2c-3.1,2.4-6.1,4.7-8.9,7.5
		c-1.6,1.6-3.1,3.3-4.5,5.1c-3.8,4.6-7.5,9.4-10,14.9c-2.4,5.2-4.3,10.6-6.3,16c-1.4,3.2-3,6.3-5,9.3c-2.5,3-5.1,5.8-8.1,8.3
		c-0.3,0.2-0.6,0.4-0.9,0.6c-0.4,0.1-0.8,0.2-1.3,0.3c-0.6-0.6-1.3-1.3-2-2c-1.7-1.7-3.3-3.2-5.1-4.8c-4.2-4-8.5-8.1-13.8-10.4
		c-3.2-1.3-6.5-3-9.9-3.5c-2.3-0.3-4.7-0.9-7.1-0.8c-2.6,0.2-5.1,0.4-7.7,0.9c-1.2,0.2-2.4,0.5-3.5,0.9c-2.5,0.9-5.1,1.9-7.4,3.2
		c-2.1,1.1-4,2.4-5.9,3.7c-5.1,3.6-10,7.4-14.3,11.8c-3.5,3.5-6.7,7.2-9.7,11.1c-2.3,2.9-4.6,5.9-6.7,9c-1.4,2.1-2.8,4.3-4.2,6.6
		c-2.6,4.3-4.8,8.7-7.2,13c-2.9,5.5-6.1,10.8-9.6,15.8c-0.4,0.5-0.8,0.9-1.2,1.4c-0.6,0.7-1.3,1.4-2.1,2.1c-0.3,0.2-0.7,0.5-1,0.7
		c-0.6,0.4-1.3,0.8-2.1,1.1c-2,0.7-4,1.3-6.1,1.7c-2.4,0.5-4.7,0.9-7.1,1.3c-3.7,0.3-7.4,0.6-11.1,0.3c-0.6-0.1-1-0.2-1.6-0.4
		c-0.4-0.2-0.8-0.5-1.2-0.8c-3-2.5-5.9-5-8.6-7.7c-1.7-1.7-3.4-3.2-5.2-4.7c-1.8-1.4-3.6-2.9-5.7-4.1c-2.1-1.3-4.4-2.1-6.7-3
		c-2.1-0.9-4.3-1.4-6.6-1.8c-2.3-0.4-4.8-0.8-7.2-0.8c-0.6,0-1.2,0.1-1.8,0.1c-1.3,0.1-4,0.4-5.8,0.8c-3.1,0.7-6,2-8.9,3.3
		c-1.1,0.6-2.2,1.1-3.2,1.7c-3.2,1.9-6.2,4.3-9.1,6.7c-4.7,3.9-8.6,9-12.2,14c-2.8,4-5.3,8.1-7.6,12.4c-4.7,8.8-8.8,17.9-12.9,26.9
		c-2,4.4-4.1,8.7-6.8,12.7c-0.3,0.4-0.7,0.7-1,1c-1.1,0.7-2.3,1.3-3.5,2c-1.4,0.5-2.8,0.9-4.3,1.2c-1.6,0.1-3.2,0-4.7-0.1
		c-4.8-0.9-9.6-2.5-14.2-4.2c-1.3-0.6-2.7-1.3-4-2.1c-2.2-1.3-4.3-2.8-6.3-4.3c-2-1.4-4-2.8-6-4.2c-0.9-0.6-2-1.2-2.9-1.7
		c-2.2-1.1-4.5-2.1-6.9-2.9c-2.7-0.9-5.5-1.3-8.3-1.6c-1.5-0.2-3-0.2-4.5,0c-1.6,0.2-4.1,0.4-5.9,0.8c-3.7,0.9-7.4,2.4-10.8,4.1
		c-2.1,1-4.1,2.3-6,3.7c-3.2,2.3-6,4.7-8.9,7.4c-1.8,1.7-3.5,3.7-5.1,5.7c-2.2,2.8-4.4,5.7-6.3,8.9c-1.9,3.2-3.3,6.4-4.7,9.8
		c-0.9,2.3-1.7,4.6-2.3,7c-0.8,3.6-1.3,7.2-1.6,10.8c-0.2,2.4-0.2,4.7,0,7c0.5,5.8,1.5,11.5,3.5,17.1c1,3,2.2,5.9,3.5,8.8
		c0.5,1,0.9,2,1.7,2.8c0.7,0.9,1.4,2,2.3,2.8c1.4,1.3,2.1,1.6,3.9,2.3c0.2,0.1,0.2,0.1,0.4,0.2c1.9,0.7,4.3,0.2,6-0.8
		c1.2-0.7,2.1-1.7,2.8-2.8l0,0c0.9-1.2,1.3-2.7,1.6-4.2c0.2-1.8,0.5-3.6,0.5-5.4c0-2.3,0-4.7,0-7c0.1-3.9,0.2-7.8,0.6-11.6
		c0.4-2.3,0.9-4.5,1.4-6.8c0.6-2.2,1.3-4.4,2.1-6.6c0.8-1.7,1.6-3.2,2.5-4.7s1.9-2.9,2.9-4.3c1.3-1.7,2.8-3.2,4.3-4.8
		c1.2-1.3,2.5-2.4,3.8-3.5c2-1.4,4-2.6,6.2-3.7c0.8-0.2,1.6-0.5,2.4-0.7c0.3,0,0.6,0,0.9,0c0.4,0.1,0.9,0.2,1.3,0.4
		c3.9,2.1,7.3,4.7,10.8,7.3c2,1.5,4,2.8,6.2,4c3.2,1.9,6.8,3.2,10.3,4.6c4.6,1.7,9.4,3.2,14.2,4.2c3.7,0.7,7.6,1.3,11.5,1.3
		c1.2,0,2.4-0.1,3.6-0.2c2.6-0.3,5.2-0.6,7.8-1.2c3.6-0.9,7.1-2.5,10.5-4c2.1-0.9,4.1-2.1,6-3.6c2-1.4,3.9-2.9,5.6-4.6
		c1.6-1.6,3.1-3.6,4.3-5.5c0.8-1.2,1.6-2.3,2.4-3.5c1.3-2,2.3-4.1,3.3-6.2c2.2-4.4,4.1-9,6.2-13.5c2.1-4.6,4.3-9.1,6.6-13.6
		c1.7-3.4,3.5-6.7,5.4-10c1.4-2.5,3-4.7,4.6-7c2.1-2.5,4.3-4.9,6.8-7c1.6-1.1,3.2-2.1,5-3.1c0.2-0.1,0.4-0.1,0.6-0.2
		c0.2,0,0.5,0,0.6,0c0.9,0.2,1.7,0.5,2.6,0.7c0.6,0.3,1.2,0.7,1.7,1c2.8,2.5,5.5,5.2,8.3,7.8c1.8,1.6,3.7,3.2,5.7,4.7
		c2.5,1.9,4.8,4,7.8,5.2c2.5,1.1,4.8,2.1,7.4,2.7c2.8,0.6,5.8,0.9,8.7,1.2c3.2,0.2,6.4,0,9.6-0.2c3.9-0.2,7.8-0.9,11.5-1.5
		c4.9-0.8,9.6-2,14.2-3.9c3.5-1.4,6.9-2.8,9.9-5.1c2.1-1.6,4-3.1,6-4.8c1-0.9,1.9-2,2.8-3c2.4-2.8,4.5-5.9,6.6-8.9
		c1.4-2.1,2.8-4.3,4.1-6.5c5.1-8.4,9-17.3,14.6-25.5c1-1.6,2.1-3.2,3.2-4.7c4.5-5.6,9.3-10.9,14.9-15.5c2.5-1.9,5.2-3.6,8-5.1
		c0.5-0.2,0.9-0.2,1.4-0.4c0.2,0,0.3,0,0.5,0c0.6,0.2,1.2,0.3,1.8,0.6c0.6,0.3,1.2,0.6,1.7,1c2.6,2.3,5.1,4.7,7.6,7.2
		c1.8,1.7,3.5,3.5,5.3,5.2c0.4,0.4,0.8,0.7,1.3,1c1.3,1,2.7,2.1,4.1,3.1c1.3,0.9,3.8,1.7,4.7,2.1c0.9,0.4,1.9,0.6,2.8,0.8
		c1.9,0.2,4,0.7,5.9,0.7c1.1,0,2.2-0.1,3.3-0.2c2.6-0.3,5.2-0.5,7.8-1.1c2.5-0.6,4.8-1.6,7.1-2.7c1.1-0.6,2.2-1.1,3.2-1.8
		c3-2.1,5.9-4.4,8.5-7c1.7-1.7,3.2-3.4,4.8-5.1c1.7-2,3.3-4.1,4.9-6.2c0.8-1.1,1.6-2.2,2.3-3.3c1.4-2.4,2.6-4.9,3.8-7.4
		c2.4-5.2,4.3-10.6,6.3-15.9c1.3-2.8,2.9-5.5,4.7-8.1c1.1-1.3,2.2-2.7,3.4-4c1.7-1.8,3.5-3.5,5.4-5.1c1.2-0.9,2.5-1.7,3.7-2.5
		c1-0.6,2-1.3,3-1.9c0.5-0.3,1-0.6,1.5-0.9c0.9-0.6,2.6-2.1,3.8-3c2.1-1.7,3.9-5.2,4.4-7.8c0.2-1.3,0.4-2.7,0.6-4
		c0-2.8-0.7-5.5-2.1-8.1c-0.9-1.1-1.7-2.1-2.5-3.2c-2-1.9-4.3-3.2-6.9-4c-3-1-6.1-0.9-8.9-0.2C363.8-19.8,361.8-18.8,359.8-17.7
		L359.8-17.7L359.8-17.7z"/>
	<path style="fill:#EDF0F4;" d="M146.8,264.7c-2.5,1-2.5,0.9-4.1,2.2c-1.9,1.2-3.9,2.2-5.9,3.2c-2.3,1.3-4.7,2.5-7,3.6
		c-5.1,2.6-10,5.3-14.9,8.1c-4.7,2.7-9.2,5.8-13.6,9c-2.8,2.1-5.5,4.3-8.1,6.7c-2,1.8-3.9,3.7-5.7,5.8c-0.6,0.6-1.1,1.3-1.7,1.9
		c-0.6,0.7-1.1,1.4-1.6,2.1c-0.9,1.6-1.4,3.3-1.4,5.2c0,2.8,1.1,5.4,3,7.4c1.9,1.9,4.6,3,7.4,3c2.6,0,5.6-1,7.4-3
		c2.1-2.5,4.4-4.7,6.7-7c1.7-1.7,3.6-3.2,5.5-4.8c4-2.8,8-5.7,12.3-8.1c5-2.8,10-5.5,15.2-8.2c2.6-1.3,5.2-2.7,7.8-4.1
		c1.3-0.7,2.5-1.3,3.8-2.1c1-0.6,2.1-1.3,3-2c1.7-1,2.4-2,3.6-3.6c1.5-2.2,1.7-5.5,1-8c-0.9-3.5-3.7-6.3-7.3-7.3
		c-0.8-0.2-2-0.4-3.1-0.4C148.3,264.3,147.4,264.4,146.8,264.7L146.8,264.7L146.8,264.7z M146.8,284.6
		C146.8,284.7,146.8,284.7,146.8,284.6C146.8,284.7,146.8,284.7,146.8,284.6C146.8,284.7,146.8,284.7,146.8,284.6L146.8,284.6
		L146.8,284.6z"/>
	<path style="fill:#EDF0F4;" d="M1048,529.6c-2.1,0.5-4,1.1-5.9,2.1c-0.6,0.2-1.1,0.6-1.7,0.9c-1.3,0.9-2.5,1.8-3.6,2.9
		c-1.7,1.7-3,3.7-4.1,5.8c-1.2,2.1-2.1,4.4-2.9,6.8c-0.5,1.4-0.8,2.8-1,4.3c-0.4,2.4-0.7,4.8-0.7,7.3c0,0.7,0.1,1.5,0.2,2.2
		c0.2,1.7,0.4,3.3,0.8,4.9c0.5,2.2,1.4,4.3,2.5,6.4c0.6,1.3,1.7,2.4,2.5,3.5c0.4,0.6,0.9,1,1.3,1.5c1,1,2.3,1.9,3.5,2.8
		c1.3,0.9,3,1.5,4.5,2.1c2.2,0.9,4.7,1.2,7.1,1.4s4.9-0.2,7.2-0.6c2.4-0.4,4.6-1.3,6.8-2.2c0.6-0.2,1-0.5,1.6-0.8s1.2-0.8,1.8-1.2
		c2.9-1.5,4.7-5.1,4.7-8.3c0-4.2-2.9-8.2-7-9.3c-2.5-0.6-4.7-0.6-7.2,0.1c-0.6,0.2-1.3,0.3-1.9,0.6c-1.3,0.4-2.6,0.7-4,1
		c-0.6,0-1.1,0-1.7,0c-0.2-0.1-0.4-0.1-0.6-0.2c-0.1-0.1-0.2-0.1-0.3-0.2c-0.1-0.1-0.2-0.2-0.2-0.2c-0.1-0.2-0.2-0.4-0.3-0.6
		c-0.2-0.6-0.3-1.2-0.5-1.8c-0.1-1.2-0.1-2.4,0-3.6c0.2-1.3,0.6-2.8,1-4c0.5-0.9,1-1.9,1.6-2.8c0.1-0.1,0.1-0.1,0.2-0.2
		c0.6-0.2,1.2-0.3,1.8-0.5c5.5-1.3,8.7-7.4,7.3-12.7c-0.7-2.6-2.5-4.8-4.7-6.2c-1.6-0.9-3.4-1.4-5.2-1.4
		C1049.8,529.3,1048.9,529.4,1048,529.6L1048,529.6L1048,529.6z"/>
	<path style="fill:#EDF0F4;" d="M800.1,563.2c-1.7,0.9-2.9,2.6-3.5,4.5s-0.2,4,0.8,5.8c1,1.7,2.6,2.8,4.5,3.5
		c0.8,0.2,1.5,0.6,2.3,0.8c0.4,0.2,0.7,0.3,1.1,0.4c0.7,0.1,1.5,0.2,2.2,0.3c0.8-0.1,1.6-0.2,2.4-0.3c1.2-0.2,3.1-1.4,3.8-2.4
		c0.9-0.9,1.5-2,1.9-3.2c0.6-1.9,0.2-4-0.7-5.6c-1.4-2.4-3.9-3.6-6.5-3.6c-0.9-0.2-1.7-0.6-2.5-0.9c-0.6-0.2-1.3-0.3-1.9-0.3
		C802.5,562.2,801.2,562.6,800.1,563.2L800.1,563.2L800.1,563.2z"/>
	<path style="fill:#EDF0F4;" d="M164.2,602.3c0,3,2.5,5.5,5.5,5.5s5.5-2.5,5.5-5.5s-2.5-5.5-5.5-5.5S164.2,599.3,164.2,602.3
		L164.2,602.3L164.2,602.3z"/>
	<path style="fill:#EDF0F4;" d="M1109.1,50.9c0,2.8,2.4,5.3,5.3,5.3s5.3-2.4,5.3-5.3c0-2.8-2.4-5.3-5.3-5.3S1109.1,48.1,1109.1,50.9
		L1109.1,50.9L1109.1,50.9z"/>
	<path style="fill:#EDF0F4;" d="M958.7-24.3c-0.7,0.4-1.4,0.9-2.1,1.4c-1.3,0.1-2.7,0.3-4,0.6c-1.6,0.6-3.1,1.3-4.7,2
		c-2.9,1.7-5.2,4-7,7C934.6-5,928.4,3.4,922.5,12c-6.2,8.9-12.3,17.8-18.6,26.6c-3.8,5.2-7.7,10.4-11.5,15.4
		c-0.9,1.1-1.7,2.2-2.5,3.4c-1.5,2.1-3.1,4.9-3.6,7.4c-0.7,4-1.3,7.5,0.1,11.5c0.9,3.3,2.6,6.2,5,8.5c1.5,1.2,2.9,2.4,4.4,3.5
		c2.1,0.9,4,2,6.2,2.5c2.4,0.6,4.9,0.7,7.4,0.9c1,0.1,2.1,0.2,3.2,0.3c0.1,0,0.2,0,0.3,0c15.1,2.8,29.8,7.6,44,13.4
		c5.4,2.5,10.7,5.1,16.1,7.4c0.8,0.3,1.6,0.6,2.5,0.8c0.9,0.2,4.4,0.9,6.3,0.7c3.2-0.3,7.6-0.8,10.3-2.8c1.6-1.3,3.4-2.2,4.7-3.8
		c2.8-3.6,4-4.7,5.3-9.2c0.3-1.1,0.5-2.1,0.6-3.2c0.6-4.2,0.9-8.2,1.1-12.4c0.2-4.8-0.2-9.6-0.6-14.5c-0.7-7-1.6-13.9-3-20.7
		c-1.7-8.8-4.4-17.2-6.5-25.9c-1-4.4-2.1-8.8-3.3-13.1c-0.9-3.5-1.9-6.9-2.5-10.4c-0.1-0.6-0.2-1-0.2-1.6c-0.1-0.6-0.1-1-0.2-1.6
		c0.4-2.6,0.2-3.8-0.6-7.7c-0.6-3.2-3-6.2-5-8.5c-3.2-3.8-8.7-5.4-13.4-5.6c-0.2,0-0.4,0-0.6,0C964.8-26.9,961.3-25.8,958.7-24.3
		L958.7-24.3L958.7-24.3z M940.4,54.2c5.4-7.4,10.5-15.1,15.7-22.6c0.8,3.3,1.6,6.6,2.5,10c1.3,4.7,2.5,9.3,3.6,14
		c0.7,3.2,1.3,6.5,1.7,9.7c0.1,0.5,0.1,0.9,0.2,1.5c-2.8-1.1-5.7-2.2-8.6-3.2c-5.9-2.1-11.8-4-17.7-5.7
		C938.6,56.6,939.5,55.4,940.4,54.2L940.4,54.2L940.4,54.2z"/>
	<path style="fill:#EDF0F4;" d="M34.4,656.5c-1.4,0.1-2.8,0.2-4.2,0.3c-2.8,0.2-5.5,0.4-8.1,0.6c-11.7,0.9-23.4,2.2-35,4
		c-1.7,0.2-3.4,0.6-5.1,0.8c-0.2,0-0.2,0-0.4,0.1c-1.2-0.1-2.5,0-3.6,0.3c-0.6,0-1.2,0-1.8,0c-1.7-0.2-3.2-0.1-5.1,0.4
		c-2.5,0.7-4.6,2.3-5.9,4.5c-1.8,3.1-1.7,6.8,0,9.9c0.9,1.7,2.3,3,3.8,4c-0.1,1.4-0.2,2.9-0.2,4.3c-0.1,2.9-0.1,5.9-0.1,8.8
		c0,5.3,0.2,10.7,0.4,16c0.1,2.9,0.2,5.9,0.2,8.8c0,2.2,0.2,4.3,0.5,6.5c0.2,1.3,0.7,2.3,1.3,3.6c0.4,0.9,1.5,2.2,1.9,2.5
		c1.4,1.3,3,2.5,5,2.9c1.1,0.2,2.2,0.4,3.3,0.4c1.1,0,2.3-0.2,3.4-0.5c4.8-0.6,9.7-1,14.6-1.6c6.5-0.7,12.9-1.5,19.3-2.5
		c5.5-0.9,10.8-2,16.2-2.8c0.6-0.1,1.3-0.2,2-0.2c0.6-0.1,1.3-0.1,1.9-0.2c0.6,0.2,1.3,0.2,2,0.2c0.9-0.2,1.8-0.2,2.8-0.4
		c1.7-0.5,3.2-1.3,4.6-2.7c1.2-1.2,2.4-3.1,2.8-4.7c0.6-2.1,0.6-4.3,0.7-6.4c0-1.5,0-3,0-4.5c0-2.8-0.2-5.6-0.3-8.5
		c-0.3-5.3-0.8-10.6-1.3-15.8c-0.2-2.8-0.6-5.5-0.8-8.3c-0.3-3.5-0.6-7-1.2-10.4c-0.6-3.2-2.5-6.3-5.3-7.8c-2.1-1.1-4-1.6-6.3-1.7
		c0,0,0,0-0.1,0C35.5,656.4,35,656.5,34.4,656.5L34.4,656.5L34.4,656.5z M28.4,677.7c0.2,2.5,0.4,5,0.6,7.4c0.6,5.5,1,11.1,1.3,16.6
		c0.1,2,0.2,3.9,0.2,5.9c-2.7,0.4-5.4,0.9-8.1,1.3c-4.7,0.9-9.4,1.7-14.1,2.4c-6.2,0.8-12.4,1.3-18.6,2.1c-0.1-2.1-0.1-4-0.2-6.1
		c-0.2-5.6-0.2-11.2-0.3-16.8c0-1.7,0-3.5,0.1-5.1c0.1-1.2,0.2-2.3,0.2-3.5c3.1-0.5,6.2-0.9,9.3-1.3
		C8.7,679.3,18.6,678.4,28.4,677.7L28.4,677.7L28.4,677.7z"/>
	<path style="fill:#EDF0F4;" d="M1035,403.8c-0.8,0.1-1.7,0.1-2.5,0.2c-1.6,0.1-3.2,0.2-4.8,0.4c-7,0.6-13.9,1.3-20.8,2.4
		c-1,0.2-2,0.3-3,0.5c-0.1,0-0.2,0-0.2,0c-0.7-0.1-1.4,0-2.1,0.2c-0.4,0-0.7,0-1.1,0c-1-0.1-1.9-0.1-3,0.2c-1.4,0.4-2.7,1.3-3.5,2.7
		c-1.1,1.8-1,4,0,5.9c0.6,1,1.3,1.7,2.2,2.3c-0.1,0.9-0.2,1.7-0.2,2.6c0,1.7-0.1,3.5,0,5.2c0,3.2,0.2,6.3,0.2,9.5
		c0.1,1.7,0.1,3.5,0.1,5.2c0,1.3,0.1,2.5,0.3,3.9c0.1,0.8,0.4,1.3,0.8,2.1c0.2,0.6,0.9,1.3,1.1,1.5c0.9,0.7,1.8,1.5,2.9,1.7
		c0.6,0.2,1.3,0.2,2,0.2s1.3-0.2,2.1-0.2c2.8-0.4,5.8-0.6,8.7-0.9c3.8-0.4,7.7-0.9,11.5-1.5c3.2-0.5,6.4-1.2,9.6-1.7
		c0.4-0.1,0.8-0.1,1.2-0.1s0.7-0.1,1.1-0.1c0.4,0.1,0.8,0.2,1.2,0.1c0.6-0.1,1.1-0.2,1.7-0.2c1-0.3,2-0.8,2.7-1.6
		c0.7-0.7,1.4-1.8,1.7-2.8c0.3-1.2,0.4-2.5,0.4-3.8c0-0.9,0-1.7,0-2.7c0-1.7-0.1-3.3-0.2-5c-0.2-3.2-0.5-6.2-0.8-9.4
		c-0.2-1.7-0.3-3.2-0.5-4.9c-0.2-2.1-0.4-4.1-0.7-6.2c-0.3-1.9-1.4-3.7-3.2-4.7c-1.2-0.6-2.4-0.9-3.8-0.9l0,0
		C1035.7,403.8,1035.4,403.8,1035,403.8L1035,403.8L1035,403.8z M1031.5,416.4c0.2,1.5,0.2,2.9,0.4,4.4c0.3,3.2,0.6,6.6,0.8,9.9
		c0.1,1.2,0.2,2.3,0.2,3.5c-1.6,0.2-3.2,0.5-4.7,0.8c-2.8,0.5-5.5,1-8.4,1.4c-3.6,0.5-7.4,0.8-11.1,1.3c0-1.2-0.1-2.4-0.1-3.6
		c-0.1-3.3-0.2-6.6-0.2-10c0-1,0-2.1,0.1-3.1c0-0.7,0.1-1.3,0.1-2.1c1.8-0.3,3.6-0.6,5.5-0.8
		C1019.8,417.4,1025.6,416.8,1031.5,416.4L1031.5,416.4L1031.5,416.4z"/>
	<path style="fill:#EDF0F4;" d="M101.3,416.2c-2.2,0.7-5.1,2.1-6.7,4c-0.9,1.1-1.9,2.3-2.7,3.6c-0.2,0.4-0.5,0.9-0.6,1.3
		c-3.3,6.7-6.7,13.5-10.6,19.9s-8.4,12.5-13,18.4c-1.7,2.3-3.5,4.6-5.1,7c-0.8,1.3-1.6,2.5-2.3,3.8c-1.2,2.1-2.3,4-3.1,6.3
		c-0.7,2.6-0.7,5.2,0,7.8c0.1,0.2,0.2,0.6,0.2,0.8c-1.9,4.2-1.8,9.3,0.6,13.5c3.8,6.6,8.1,13,12.1,19.5c4.1,6.6,8.3,13.2,12.6,19.8
		c2,3.1,4,6.1,6.2,9c1.7,2.2,3.3,4.5,5.1,6.7c0.9,1.1,2.1,1.8,3.3,2.6c2.6,1.6,4.6,1.7,7.7,2.1c2.5,0.2,5.5-0.9,7.7-2.1
		c2.4-1.3,4.1-3.4,5.5-5.5c0.6-0.9,1-1.7,1.4-2.7c3.2-7,6.6-13.8,10.2-20.6c3.7-6.8,7.4-13.6,11.6-20.2c4-6.4,8.3-12.7,12.4-19.1
		c1.2-1.7,2.3-3.6,3.5-5.3c0.2-0.3,0.5-0.6,0.7-0.9c1.7-2.3,2.1-5.1,2.3-7.9c0.2-3.9-1.8-7.8-4.3-10.5c-1.8-1.8-4-3.1-6.5-3.8
		c-0.2-0.1-0.4-0.1-0.6-0.2c0,0,0,0-0.1-0.1c-1.7-1.4-3.2-2.9-4.7-4.6c-0.9-1-1.8-2.1-2.7-3.1c-4.3-6-8.4-12.2-12.7-18.2
		c-2.2-3.1-4.4-6.2-6.3-9.5c-1.5-2.5-3.2-4.8-5.1-7c-2.8-3.2-7.4-5.3-11.8-5.3C104.1,415.6,102.7,415.8,101.3,416.2L101.3,416.2
		L101.3,416.2z M86.5,488c0.9-1.6,1.9-3.1,2.9-4.6c2.1-3.1,4.5-6,6.7-9c4-5.3,7.8-10.8,11.2-16.4c2.2,3.2,4.3,6.4,6.6,9.6
		c1.7,2.5,3.5,4.7,5.2,7c1.2,1.5,2.4,3.1,3.7,4.5c0.9,0.9,1.7,1.7,2.5,2.6c-1.3,2.1-2.7,4-4,6c-4.3,6.5-8.4,13-12.3,19.8
		c-2.1,3.7-4.1,7.4-6.1,11.2c-3.7-5.8-7.4-11.5-11.1-17.4c-2.3-3.6-4.7-7.3-6.9-11C85.7,489.6,86.1,488.7,86.5,488L86.5,488
		L86.5,488z"/>
	<path style="fill:#EDF0F4;" d="M382.5,660.6c-0.8-2.6-2.5-6.3-4.7-8.1c-1.3-1-2.5-2.2-4-3.1c-3.3-1.9-6.2-2.6-10-2.8
		c-0.2,0-0.4,0-0.6,0c-2.8,0-5.4,0.8-8,1.5c-6.3,1.7-12.7,3.2-19.1,4.3c-0.8,0.1-1.6,0.2-2.4,0.2c0-0.4,0-0.8,0-1.2
		c0.2-8.1,0.7-16.1,1.7-24.2c-0.2-1.7-0.5-3.5-0.7-5.1c-0.9-3.3-2.6-6.2-5-8.6c-3.6-3.6-8.6-5.7-13.8-5.7c-5.1,0-10.1,2.1-13.8,5.7
		c-1,1.3-2.1,2.6-3,4c-1.7,3-2.6,6.3-2.7,9.8c-1.3,9.8-1.9,19.6-1.7,29.5c-3.8,0.6-7.6,1.1-11.4,1.6c-1.7,0.2-3.4,0.4-5.1,0.6
		c-4,0.5-8.1,0.4-12.2,0c-0.8-0.2-1.7-0.2-2.5-0.4c-1.7-0.2-3.5-0.5-5.1-0.7c-3.5,0-6.8,0.9-9.8,2.7c-4.3,2.5-7.6,6.8-8.9,11.6
		c-1.3,5.1-0.6,10.5,2,15c1,1.3,2.1,2.6,3,4c2.5,2.5,5.3,4.1,8.6,5c7.6,1.2,15.1,2.4,22.9,2c2.9-0.2,5.8-0.6,8.6-0.9
		c4.3-0.5,8.5-1.1,12.7-1.7c0.2,2.1,0.4,4.3,0.6,6.4c0.2,1.7,0.3,3.5,0.5,5.2c0.4,4.9,0.7,10.1,3.6,14.3l0,0
		c0.8,1.3,1.8,2.7,2.9,3.8c3.5,3.5,8.3,5.5,13.3,5.5c3.4,0,6.6-0.9,9.5-2.5c2.8-1.7,5.1-4,6.7-6.7c0.1-0.2,0.2-0.4,0.2-0.6
		c2.4-5.5,1.8-3.8,2.6-9.8c0.1-0.6,0.1-1.2,0.1-1.8c-0.1-1.3-0.2-2.5-0.3-3.9c-0.2-2.5-0.5-4.8-0.6-7.2c-0.2-2.2-0.4-4.4-0.6-6.7
		c4.2-0.5,8.3-1,12.4-1.7c5-0.9,9.9-2.1,14.8-3.5c1.4-0.4,2.8-0.7,4.3-1.2c4.3-1.4,6.2-2.6,9.6-5.5c2.1-1.9,4.7-6.2,5.2-9.1
		C383.2,666.7,383.7,664.3,382.5,660.6z"/>
	<path style="fill:#EDF0F4;" d="M529.2,40.9c-4.3,0.8-8.5,2.5-12,5.1c-2.1,1.4-4,3.1-5.6,5c-1.5,1.7-2.9,3.5-4.2,5.3
		c-1,1.5-2,3.1-2.8,4.7c-0.7,1.6-1.5,3.2-2.1,4.9c-0.3,0.9-0.7,1.8-0.9,2.8c-1,3.8-1.4,7.7-2.1,11.5c0,0.2-0.1,0.5-0.1,0.6
		c-0.9,1.7-1.4,3.5-1.4,5.4c0,3.7,2.1,7.3,5.2,9.2c2,1.2,4.1,1.3,6.4,1.6c1.3,0.2,2.5,0,3.8-0.2c0.8-0.1,1.5-0.1,2.3-0.1
		c0.7,0,1.3,0,2.1,0c3-0.2,5.9-0.8,8.8-1.7c2.2-0.7,4.3-1.3,6.6-1.8c1.8-0.4,3.6-0.7,5.5-1c4.9-0.5,9.7-0.2,14.6-0.5
		c2.2-0.2,4.4-0.4,6.7-0.7c1.3-0.2,2.5-0.3,3.6-0.6s2.5-0.6,3.6-1c2.6-1,3.1-1.3,5.2-3c1.6-1.3,2.5-3.2,3.1-5.1
		c0.8-2.3,0.4-5-0.4-7.2c-2-5.5-4.3-11-7.2-16.2c-1.7-3-3.8-5.9-6.1-8.4c-1.3-1.6-3.1-2.8-4.7-4c-0.8-0.6-1.6-1.1-2.5-1.6
		c-1.5-0.8-3.1-1.4-4.7-1.9c-1.9-0.7-4.1-0.9-6.2-1.1c-1.3-0.2-2.7-0.3-4-0.3c-0.7,0-1.4-0.1-2.2-0.1
		C534.8,40.1,531.9,40.3,529.2,40.9L529.2,40.9L529.2,40.9z M542.2,61c0.8,0.2,1.5,0.4,2.3,0.6c0.2,0.2,0.6,0.3,0.8,0.5
		c0.9,0.8,1.7,1.6,2.4,2.5c1.3,2,2.6,4.1,3.7,6.2c-0.8,0.1-1.6,0.1-2.5,0.1c-1.3,0.1-2.5,0-3.8,0c-1.4,0-2.8,0-4.3,0.1
		c-3.5,0.2-7,0.8-10.4,1.4c-2.5,0.5-5.1,0.9-7.6,1.7c-0.6,0.2-1.1,0.4-1.7,0.6c0.1-0.3,0.2-0.6,0.2-0.9c0.2-0.6,0.3-1.1,0.6-1.6
		c0.9-2,2-3.8,3.2-5.6c1-1.2,2.1-2.3,3.2-3.3c0.8-0.6,1.7-1,2.6-1.5c0.9-0.3,2-0.6,3-0.8C536.7,60.7,539.4,60.8,542.2,61L542.2,61
		L542.2,61z M522.7,70.4c-0.2,0.4-0.3,0.8-0.5,1.1C522.4,71.1,522.6,70.8,522.7,70.4L522.7,70.4L522.7,70.4z"/>
	<path style="fill:#EDF0F4;" d="M310.2,270.2c-4.1,0.1-8.3,0.6-12.3,1.4c-1.6,0.3-3.2,0.9-4.7,1.4c-2.3,0.8-4.6,1.8-6.8,2.8
		c-1.5,0.7-2.9,1.5-4.3,2.4c-1.3,0.8-2.6,1.6-3.8,2.5c-3.3,2.5-6.6,5.1-9.6,7.9c-2.5,2.4-4.7,4.8-6.8,7.4c-1.7,2.1-3.1,4.1-4.4,6.3
		c-0.8,1.3-1.5,2.8-2.2,4.2c-1.9,3.8-3.4,7.8-5,11.6c-1.3,2.9-2.5,5.9-3.6,8.9c-1.1,2.9-1.8,6-2.5,9.1c-0.9,4.1-1.5,8.3-1.9,12.5
		c-0.3,3.5,0.3,7,0.8,10.4c0.2,1.5,0.6,2.9,1,4.4c0.2,0.7,0.5,1.3,0.7,2c0.6,1.7,1.3,3.4,2.1,5c1.5,3,3.4,5.9,5.6,8.4
		c1,1.2,2.1,2.4,3.2,3.5c1.9,1.7,3.9,3.3,5.9,4.8c2.7,1.9,5.5,3.6,8.5,5.1c0.9,0.5,1.7,0.8,2.6,1.2c1.8,0.8,3.6,1.6,5.5,2.1
		c3,0.8,6.1,0.9,9.2,0.8c2.1,0,4-0.6,5.7-1.6c2.5-1.5,4.4-4,5.2-6.8c1.6-5.8-1.9-12.5-7.9-13.9c-1.9-0.5-3.7-1.2-5.5-1.9
		c-1.9-0.9-3.7-1.8-5.5-2.8c-1.6-0.9-3.2-1.9-4.7-3c-1.7-1.4-3.2-2.8-4.7-4.5c-0.8-1.2-1.5-2.5-2.2-3.8c-0.2-0.7-0.6-1.4-0.8-2.1
		c-0.2-0.6-0.4-1.3-0.5-2.1c-0.2-1.7-0.2-3.5-0.1-5.2c0.1-0.6,0.2-1.3,0.2-1.9c0.8-4.4,1.9-8.8,3.3-13c0.7-2.2,1.7-4.3,2.5-6.6
		c0.6-1.6,1.3-3.2,2-4.7c0.8-1.9,1.7-3.7,2.5-5.5c0.9-1.7,1.8-3.3,2.9-4.9c3.2-3.7,6.6-7.1,10.3-10.2c2.9-2.1,6-4,9.3-5.5
		c1.1-0.4,2.2-0.8,3.3-1.1c1.4-0.4,2.8-0.6,4.2-0.9c2.2-0.2,4.4-0.3,6.6-0.2c1.1,0.2,2.1,0.4,3.2,0.7c1.3,0.3,2.6,0.8,3.9,1.3
		c2.4,1.1,4.7,2.5,6.8,4c0.5,0.4,0.9,0.8,1.4,1.3c0.6,0.6,1.2,1.2,1.7,1.8c0.9,1.4,1.7,2.8,2.5,4.4c0.5,1.2,0.9,2.5,1.2,3.7
		c0.3,0.9,0.5,2,0.6,3c0.2,1.1,0.2,2.3,0.2,3.4c0,0.9,0,1.8-0.1,2.8c-0.2,1.2-0.6,2.4-0.9,3.5c-0.4,1.2-0.8,2.3-1.3,3.4
		c-0.6,1.3-1.3,2.7-2.1,4c-0.6,0.9-1.2,1.9-1.8,2.8c-0.9,1.1-1.9,2.1-2.9,3.2c-0.9,1-2.1,1.9-3.1,2.8c-1.2,0.9-2.5,1.8-3.8,2.6
		c-1.5,0.9-3.1,1.7-4.7,2.5c-0.2,0.1-0.2,0.1-0.4,0.2c-1.3,0.6-2.8,0.9-4.2,1.2c-0.9,0.1-2,0.1-2.9,0c-0.9-0.2-1.9-0.5-2.8-0.8
		c-0.8-0.4-1.5-0.8-2.2-1.3c-0.2-0.2-0.5-0.4-0.7-0.6c-0.5-0.7-0.9-1.5-1.3-2.2c-0.2-0.7-0.4-1.5-0.6-2.2c-0.1-1.7,0-3.5,0.2-5.1
		c0.4-2.4,1-4.7,1.8-7c0.6-1.3,1.3-2.6,2.1-3.8c0.5-0.6,1-1.1,1.6-1.6c0.6-0.4,1.3-0.8,2.1-1.1c1.2-0.5,2.5-0.9,3.6-1.2
		c3.9-1.2,6.2-5.1,5.1-9.1c-1-3.8-5.2-6.3-9.1-5.1c-1.6,0.5-3.2,1-4.7,1.6c-1.2,0.5-2.3,0.9-3.5,1.5c-1.9,0.9-3.4,2.1-5.1,3.4
		c-1.2,0.9-2.3,1.9-3.2,3.1c-1.3,1.7-2.8,3.3-3.8,5.1c-1.9,3.2-3.2,6.9-4.3,10.5c-1.1,3.7-1.8,7.7-1.7,11.6c0.2,4,1.3,7.6,3,11.2
		c0.6,1.2,1.1,2.4,1.9,3.4c1,1.3,2,2.6,3.2,3.8c1.3,1.3,2.8,2.5,4.4,3.6c2.3,1.6,5,2.7,7.5,3.6c2.1,0.8,4.4,1,6.7,1.3
		c1.2,0.2,2.5,0.2,3.6,0.2c1.8-0.1,3.7-0.4,5.5-0.7c1.1-0.2,2.1-0.4,3.2-0.7c0.9-0.3,1.9-0.6,2.8-1c2.2-0.8,4.4-1.7,6.6-2.8
		c2.9-1.4,5.6-3.2,8.2-5.1c1.9-1.4,4-2.9,5.7-4.6c1.2-1.1,2.3-2.3,3.3-3.6c2.8-3.2,5.1-6.6,7-10.3c1.9-3.7,3.3-7.7,4.3-11.7
		c0.4-1.6,0.6-3.3,0.7-4.8c0.1-0.9,0.2-1.7,0.2-2.5c0.1-1.5,0.1-3-0.1-4.5c-0.5-4.1-1-8.2-2.3-12.3c-0.5-1.5-1-3-1.7-4.4
		c-0.9-2.3-1.9-4.6-3.2-6.7c-2.2-3.6-4.8-6.7-7.9-9.6c-1.8-1.7-3.8-3.1-5.8-4.5c-1.3-0.9-2.5-1.7-3.8-2.5
		c-7.1-3.8-14.9-6.6-23.2-6.6C310.7,270.2,310.5,270.2,310.2,270.2L310.2,270.2L310.2,270.2z"/>
	<path style="fill:#EDF0F4;" d="M603.4,675.6c-1.7,0-3.5,0.3-5.2,0.6c-0.7,0.1-1.4,0.4-2,0.6c-1,0.3-1.9,0.8-2.9,1.2
		c-0.6,0.3-1.2,0.6-1.8,1c-0.5,0.3-1.1,0.7-1.6,1.1c-1.4,1.1-2.8,2.2-4.1,3.3c-1.1,1-2,2-2.9,3.1c-0.7,0.9-1.3,1.7-1.9,2.7
		c-0.3,0.5-0.6,1.2-0.9,1.8c-0.8,1.6-1.4,3.3-2.1,4.9c-0.5,1.2-1.1,2.5-1.5,3.8c-0.5,1.2-0.8,2.5-1.1,3.8c-0.4,1.7-0.6,3.5-0.8,5.3
		c-0.1,1.5,0.1,3,0.3,4.4c0.1,0.6,0.3,1.2,0.4,1.9c0.1,0.3,0.2,0.5,0.3,0.8c0.3,0.7,0.5,1.4,0.9,2.1c0.6,1.3,1.4,2.5,2.4,3.5
		c0.4,0.5,0.9,1,1.4,1.5c0.8,0.7,1.6,1.4,2.5,2c1.1,0.8,2.3,1.5,3.6,2.2c0.4,0.2,0.7,0.3,1.1,0.5c0.8,0.3,1.5,0.7,2.3,0.9
		c1.3,0.3,2.6,0.4,3.9,0.3c0.9,0,1.7-0.3,2.4-0.7c1.1-0.6,1.9-1.7,2.2-2.9c0.7-2.4-0.8-5.3-3.3-5.9c-0.8-0.2-1.6-0.5-2.3-0.8
		c-0.8-0.4-1.6-0.8-2.3-1.2c-0.7-0.4-1.4-0.8-2-1.3c-0.7-0.6-1.4-1.2-2-1.9c-0.3-0.5-0.6-1.1-0.9-1.6c-0.1-0.3-0.3-0.6-0.3-0.9
		c-0.1-0.3-0.2-0.5-0.2-0.9c-0.1-0.7-0.1-1.5,0-2.2c0-0.3,0.1-0.5,0.1-0.8c0.3-1.9,0.8-3.7,1.4-5.5c0.3-0.9,0.7-1.8,1.1-2.8
		c0.3-0.7,0.5-1.4,0.8-2c0.3-0.8,0.7-1.6,1.1-2.3c0.4-0.7,0.8-1.4,1.2-2.1c1.4-1.6,2.8-3,4.3-4.3c1.2-0.9,2.5-1.7,3.9-2.3
		c0.5-0.2,0.9-0.3,1.4-0.5c0.6-0.2,1.2-0.3,1.8-0.4c0.9-0.1,1.9-0.1,2.8-0.1c0.5,0.1,0.9,0.2,1.4,0.3c0.5,0.1,1.1,0.3,1.6,0.5
		c1,0.5,2,1.1,2.9,1.7c0.2,0.2,0.4,0.3,0.6,0.5c0.3,0.3,0.5,0.5,0.7,0.8c0.4,0.6,0.7,1.2,1.1,1.9c0.2,0.5,0.4,1.1,0.5,1.6
		c0.1,0.4,0.2,0.8,0.3,1.3c0.1,0.5,0.1,1,0.1,1.4c0,0.4,0,0.8,0,1.2c-0.1,0.5-0.3,1-0.4,1.5c-0.2,0.5-0.3,1-0.5,1.4
		c-0.3,0.5-0.5,1.1-0.9,1.7c-0.3,0.4-0.5,0.8-0.8,1.2c-0.4,0.5-0.8,0.9-1.2,1.4c-0.4,0.4-0.9,0.8-1.3,1.2c-0.5,0.4-1.1,0.8-1.6,1.1
		c-0.6,0.4-1.3,0.7-2,1.1c-0.1,0-0.1,0-0.2,0.1c-0.5,0.3-1.2,0.4-1.8,0.5c-0.4,0-0.8,0-1.2,0c-0.4-0.1-0.8-0.2-1.2-0.3
		c-0.3-0.2-0.6-0.3-0.9-0.5c-0.1-0.1-0.2-0.2-0.3-0.3c-0.2-0.3-0.4-0.6-0.5-0.9c-0.1-0.3-0.2-0.6-0.3-0.9c0-0.7,0-1.5,0.1-2.2
		c0.2-1,0.4-2,0.8-3c0.3-0.5,0.5-1.1,0.9-1.6c0.2-0.3,0.4-0.5,0.7-0.7c0.3-0.2,0.5-0.3,0.9-0.5c0.5-0.2,1.1-0.4,1.5-0.5
		c1.6-0.5,2.6-2.2,2.2-3.8c-0.4-1.6-2.2-2.7-3.8-2.2c-0.7,0.2-1.4,0.4-2,0.7c-0.5,0.2-1,0.4-1.5,0.6c-0.8,0.4-1.4,0.9-2.2,1.4
		c-0.5,0.4-1,0.8-1.4,1.3c-0.5,0.7-1.2,1.4-1.6,2.2c-0.8,1.4-1.4,2.9-1.8,4.4c-0.5,1.6-0.8,3.3-0.7,4.9c0.1,1.7,0.5,3.2,1.3,4.7
		c0.3,0.5,0.5,1,0.8,1.4c0.4,0.5,0.8,1.1,1.4,1.6c0.5,0.5,1.2,1.1,1.9,1.5c1,0.7,2.1,1.1,3.2,1.5c0.9,0.3,1.9,0.4,2.8,0.5
		c0.5,0.1,1.1,0.1,1.5,0.1c0.8,0,1.6-0.2,2.3-0.3c0.5-0.1,0.9-0.2,1.4-0.3c0.4-0.1,0.8-0.3,1.2-0.4c0.9-0.3,1.9-0.7,2.8-1.2
		c1.2-0.6,2.4-1.4,3.5-2.2c0.8-0.6,1.7-1.2,2.4-1.9c0.5-0.5,1-1,1.4-1.5c1.2-1.4,2.2-2.8,3-4.3c0.8-1.6,1.4-3.3,1.8-4.9
		c0.2-0.7,0.3-1.4,0.3-2c0-0.4,0.1-0.7,0.1-1.1c0-0.6,0-1.3,0-1.9c-0.2-1.7-0.4-3.5-1-5.2c-0.2-0.6-0.4-1.3-0.7-1.9
		c-0.4-1-0.8-1.9-1.4-2.8c-0.9-1.5-2-2.8-3.3-4.1c-0.8-0.7-1.6-1.3-2.4-1.9c-0.5-0.4-1.1-0.7-1.6-1.1c-3-1.6-6.3-2.8-9.8-2.8
		C603.6,675.6,603.5,675.6,603.4,675.6L603.4,675.6L603.4,675.6z"/>
	<path style="fill:#EDF0F4;" d="M1124.1,401.5c1.7,2.9,3.6,5.7,5.8,8.3c0.9,1,1.8,2,2.8,2.8c1.5,1.3,3.1,2.6,4.7,3.8
		c1.1,0.8,2.2,1.5,3.4,2.2c1,0.6,2.1,1.3,3.2,1.8c3.1,1.4,6.2,2.8,9.4,3.9c2.6,0.9,5.2,1.5,8,2.1c2.1,0.4,4.1,0.6,6.2,0.8
		c1.3,0.1,2.6,0,3.9-0.1c3.5-0.1,6.9-0.6,10.3-0.9c2.6-0.2,5.1-0.5,7.8-0.9c2.5-0.3,5.1-1,7.5-1.7c3.3-0.9,6.6-2.1,9.7-3.5
		c2.6-1.1,4.9-2.8,7.1-4.5c1-0.7,1.9-1.6,2.8-2.5c0.4-0.4,0.8-0.9,1.2-1.3c0.9-1.1,1.9-2.3,2.8-3.5c1.6-2.2,2.8-4.7,3.8-7.3
		c0.5-1.2,0.9-2.5,1.2-3.7c0.5-2.1,0.9-4.1,1.1-6.2c0.3-2.7,0.5-5.4,0.5-8.1c0-0.8-0.1-1.6-0.2-2.4c-0.2-1.6-0.2-3.2-0.6-4.8
		c-0.6-2.5-1.7-4.7-2.9-6.9c-0.8-1.5-1.9-2.6-3.3-3.6c-2.1-1.3-4.6-1.7-6.9-1.1c-4.8,1.1-8.2,6.2-7,11.1c0.4,1.6,0.6,3.2,0.8,4.7
		c0.1,1.7,0.2,3.4,0.1,5.1c0,1.5-0.2,3-0.3,4.5c-0.4,1.7-0.8,3.4-1.4,5.1c-0.6,1-1.2,2.1-1.9,3.1c-0.4,0.5-0.9,0.9-1.3,1.4
		c-0.4,0.4-0.8,0.8-1.3,1.1c-1.2,0.8-2.4,1.5-3.7,2.1c-0.5,0.2-0.9,0.4-1.4,0.6c-3.5,1.1-7,2.1-10.7,2.6c-1.9,0.3-3.8,0.5-5.7,0.7
		c-1.4,0.2-2.8,0.3-4.2,0.4c-1.7,0.2-3.3,0.2-5,0.3c-1.6,0.1-3.1-0.1-4.7-0.2c-3.9-0.8-7.6-2-11.3-3.5c-2.6-1.3-5.1-2.8-7.5-4.6
		c-0.7-0.6-1.4-1.3-2.1-2c-0.8-0.9-1.6-1.7-2.3-2.7c-1-1.5-1.9-3.1-2.7-4.7c-0.2-0.9-0.6-1.7-0.7-2.6c-0.2-1.1-0.5-2.1-0.6-3.2
		c-0.1-2.1-0.1-4.3,0.2-6.4c0.1-0.5,0.2-1,0.4-1.5c0.2-0.6,0.4-1.3,0.6-1.9c0.6-1.2,1.4-2.4,2.2-3.5c0.7-0.8,1.4-1.6,2.2-2.3
		c0.6-0.6,1.3-1.1,1.9-1.6c0.8-0.6,1.5-1,2.4-1.5c0.6-0.3,1.3-0.7,2-0.9c0.9-0.3,1.9-0.6,2.8-0.7s2-0.3,2.9-0.4
		c1.3-0.1,2.5-0.1,3.7-0.1c0.9,0,1.8,0.1,2.7,0.2c1.1,0.2,2.3,0.6,3.4,0.9s2.1,0.7,3.2,1.2c1.1,0.6,2.2,1.1,3.3,1.7
		c1.3,0.7,2.5,1.6,3.6,2.5c0.1,0.1,0.2,0.2,0.2,0.2c0.9,0.8,1.7,1.7,2.5,2.6c0.4,0.7,0.8,1.4,1.2,2.1c0.2,0.8,0.4,1.6,0.5,2.4
		c0,0.7,0,1.3-0.1,2.1c-0.1,0.2-0.2,0.5-0.2,0.7c-0.3,0.6-0.7,1.2-1.1,1.8c-0.4,0.5-0.9,0.9-1.3,1.3c-1.2,0.7-2.5,1.3-3.8,1.9
		c-1.9,0.6-3.7,1.1-5.7,1.3c-1.2,0.1-2.4,0.1-3.6-0.1c-0.6-0.2-1.2-0.3-1.7-0.5c-0.6-0.3-1.1-0.7-1.6-1c-0.8-0.7-1.5-1.4-2.3-2.1
		c-2.3-2.3-6.1-2.5-8.5-0.2c-2.3,2.2-2.5,6.2-0.2,8.5c0.9,0.9,2,1.9,3,2.8c0.8,0.6,1.6,1.3,2.4,1.9c1.3,1,2.8,1.7,4.4,2.3
		c1.1,0.5,2.3,0.9,3.5,1.1c1.7,0.3,3.5,0.7,5.2,0.7c3.1,0.2,6.2-0.3,9.2-1c3.1-0.7,6.2-1.7,9-3.2c2.8-1.7,5-3.9,7-6.5
		c0.6-0.9,1.3-1.7,1.7-2.7c0.6-1.3,1.1-2.5,1.5-3.7c0.5-1.5,0.6-3,0.9-4.5c0.2-2.2,0-4.6-0.3-6.8c-0.2-1.9-0.9-3.6-1.7-5.3
		c-0.4-0.9-0.8-1.8-1.3-2.6c-0.7-1.3-1.7-2.5-2.6-3.7c-0.6-0.7-1.1-1.3-1.7-2c-0.6-0.6-1.2-1.1-1.8-1.7c-1.4-1.3-2.9-2.5-4.5-3.6
		c-2.1-1.6-4.4-2.8-6.9-4c-1.7-0.8-3.6-1.7-5.5-2.3c-1.3-0.4-2.5-0.7-3.8-1c-3.3-0.8-6.7-1.1-10-1c-3.4,0.1-6.8,0.6-10.1,1.4
		c-1.3,0.3-2.6,0.9-3.8,1.3c-0.6,0.2-1.3,0.5-2,0.8c-1.1,0.5-2.2,1.1-3.2,1.8c-2.8,2-5.5,4-7.9,6.3c-0.9,0.9-1.7,1.9-2.5,2.9
		c-1.3,1.6-2.5,3.2-3.6,4.9c-1.7,2.9-3,6.1-3.8,9.4c-0.5,1.9-0.8,3.9-1,5.9c-0.2,1.2-0.3,2.5-0.3,3.7c0,6.6,1,13.3,4.2,19.2
		C1123.9,401.1,1124,401.3,1124.1,401.5L1124.1,401.5L1124.1,401.5z"/>
	<path style="fill:#EDF0F4;" d="M946.4,564.9c-5.5-0.2-11.1-0.1-16.4,1.6c-4.1,1.3-8.3,2.8-12.1,5c-5.3,2.9-10.3,6.4-15.1,10
		c-3.7,2.8-7.1,6.2-10.3,9.6c-1.7,1.8-3.5,3.7-5.1,5.7c-2.2,2.5-4.6,5.1-6.6,7.8c-3,3.8-6.1,7.6-8.7,11.6
		c-3.5,5.3-6.2,11.1-8.6,16.8c-1.9,4.3-3.6,8.7-4.7,13.2c-0.7,0.4-1.3,0.8-2.1,1.2c-3.1,1.8-6,3.9-8.9,5.9c-1.9,1.3-3.9,2.8-5.6,4.3
		c-1.8,1.7-3.6,3.5-5.4,5.3c-3.6,3.8-7,7.9-9.9,12.3c-3.6,5.6-6.4,11.5-9.1,17.6c-1.8,4-3.4,8.2-4.9,12.5c-1.6,4.4-2.9,8.9-3.9,13.5
		c-1.2,6-2.6,12.2-2.7,18.3c-0.1,6.2,0.2,12.4,1.7,18.4c0.8,3,1.8,6,3.6,8.7c1.4,2.8,3.4,5,5.9,6.6c4,2.6,8.8,3.5,13.4,2.5
		c4.4-0.9,8.4-3.7,10.9-7.4s3.8-9,2.5-13.4c-0.9-3.2-1.6-6.4-2.1-9.7c-0.1-1.7-0.1-3.4,0.1-5.1c0.2-2.1,0.4-4.1,0.6-6.2
		c1-4.8,2.2-9.6,3.9-14.3c1.7-5.1,3.8-10,5.9-14.9c2.2-4.2,4.6-8.2,7.5-11.9c0.6,1.5,1.3,3,2.1,4.4c2,3.8,4.5,7.4,7,10.8
		c0.7,1,1.4,2.1,2.1,3.1c2.7,3.8,6.2,7,10,9.6c1.3,0.9,2.7,1.6,4,2.3c2.6,1.3,5.2,2.6,8,3.6c4.5,1.5,9.3,2,14.1,2.3
		c2.7,0.2,5.6-0.2,8.2-0.5c1.6-0.2,3.1-0.4,4.7-0.7s3.1-0.8,4.6-1.3c2.8-0.9,5.7-1.9,8.4-3.1c4.1-1.7,7.8-4.5,11.4-7
		c2.1-1.4,3.9-3.1,5.6-4.9c2.6-2.8,5.2-5.6,7.5-8.6c2.1-2.9,3.6-6,5.1-9.3c1.1-2.5,1.5-5.5,1.9-8.1c0.5-2.9,0-6-0.3-8.9
		c-0.3-2.5-1.5-5.1-2.4-7.4c-0.5-1.3-1.2-2.5-1.8-3.6c-1.3-2.4-3-4.7-4.8-6.8c-2.1-2.3-4.5-4.2-6.9-6.2c-2.3-1.9-4.8-3.4-7.4-4.9
		c-3.3-1.9-6.9-3.5-10.4-4.9c-2.5-1-5-1.9-7.5-2.8c-4.3-1.4-8.9-2.2-13.3-3c-2.8-0.5-5.6-0.7-8.5-0.6c1.6-2.3,3.1-4.5,4.7-6.8
		c2.7-3.8,5.6-7.4,8.6-10.9c2.5-2.8,5-5.5,7.8-8.1c2.9-2.7,5.9-5.1,9.1-7.5c2.5-1.5,5-2.9,7.6-4.1c0.6-0.2,1.3-0.3,1.9-0.4
		c1.3,0,2.6,0.1,3.9,0.1c8.5,0.2,16.1-6.3,16.4-15c0.3-7-4.3-13.6-10.9-15.7C949.2,565.2,947.8,564.9,946.4,564.9L946.4,564.9
		L946.4,564.9z M921.2,675.2c2.3,1.3,4.6,2.7,6.6,4.3c0.2,0.2,0.3,0.3,0.5,0.6c-0.2,0.4-0.6,0.8-0.9,1.2c-2,2-4,3.9-6.2,5.6
		c-1.6,0.9-3.2,1.8-5,2.6c-2.1,0.6-4.2,1.2-6.3,1.5c-1.7,0-3.2-0.1-4.9-0.2c-0.9-0.2-1.8-0.6-2.8-0.9c-0.6-0.3-1.2-0.7-1.8-1.1
		c-1.5-1.6-2.8-3.3-4.1-5.1c-0.4-0.6-0.8-1.3-1.3-1.9c-1.7-2.5-2.9-5.2-4-8.1c-0.2-0.7-0.4-1.5-0.6-2.2c2.1-0.5,4.3-0.9,6.4-1.3
		c3.2-0.2,6.3-0.2,9.6,0.2C911.7,671.5,916.5,673.2,921.2,675.2L921.2,675.2L921.2,675.2z"/>
	<path style="fill:#EDF0F4;" d="M1150.5,659.4c-0.5,0.6-1,1.3-1.5,2c-0.9,1.5-1.3,3.2-1.3,5c1,11.7,3.8,23.3,6.8,34.6
		c0.7,2.7,1.4,5.3,2.2,8c0.6,2.1,1.5,4.3,2,6.4c0.1,0.7,0.2,1.4,0.3,2.2c0.5,1.7,1.3,3.2,2.7,4.6c1.3,1.3,2.8,2.1,4.6,2.7l0,0
		c2.6,0.8,5.6,0.3,8-1c1.4-0.9,2.6-2,3.5-3.3c1.3-0.9,2.5-1.7,3.7-2.6c1.9-1.4,3.9-2.8,5.9-4c3.8-2.5,7.8-4.4,11.9-6.2
		c3.2-1.3,6.5-2.5,9.7-3.7c1.9-0.7,3.9-1.4,5.8-2.1c0.9-0.3,1.9-0.7,2.8-1c1.3-0.5,2.5-1,3.6-1.6c1.2-0.6,2.1-1.3,3.1-2.2
		c3.2-3.2,3.9-8.5,1.6-12.3c-0.9-1.5-2.1-2.8-3.6-3.6c-2.5-1.4-5.1-1.7-7.9-1c-1.3,0.3-2.7,1-4,1.7c-4.2,1.7-8.5,2.9-12.7,4.5
		c-5.9,2.3-11.8,4.8-17.4,7.8c-2,1.1-3.9,2.3-5.7,3.6c-1.4-4.7-2.8-9.5-4-14.2c-0.6-2.7-1.3-5.3-1.8-8c-0.5-2.1-0.8-4.3-1.1-6.5
		c-0.1-0.7-0.2-1.4-0.2-2.2c-0.1-0.9-0.2-1.7-0.3-2.6c-0.5-1.7-1.3-3.1-2.5-4.3c-1.8-1.8-4.3-2.8-7-2.8S1152.3,657.5,1150.5,659.4
		L1150.5,659.4L1150.5,659.4z"/>
	<path style="fill:#EDF0F4;" d="M395,477.2c-0.6,0-1.2,0.1-1.8,0.1c-0.5,0-0.9,0.1-1.5,0.1c-3,0-5.6,1.1-7.8,3.2
		c-1.3,1.3-2.1,2.8-2.7,4.6c-0.8,2.8-0.3,5.5,1,8c1.1,2.1,2.8,3.6,4.9,4.4c0.3,0.2,0.7,0.3,1,0.5c0.8,0.4,1.6,0.8,2.4,1.3
		c2.5,1.3,5.2,1.8,8,1c2.6-0.7,4.8-2.5,6.2-4.7c2-3.3,1.7-7.7-0.2-10.9c-1.1-4.1-4.9-7.4-9.3-7.4C395.3,477.2,395.2,477.2,395,477.2
		L395,477.2L395,477.2z"/>
	<path style="fill:#EDF0F4;" d="M70.1,78.1c-0.6,0-1.2,0.1-1.8,0.1c-0.5,0-0.9,0.1-1.5,0.1c-3,0-5.6,1.1-7.8,3.2
		c-1.3,1.3-2.1,2.8-2.7,4.6c-0.8,2.8-0.3,5.5,1,8c1.1,2.1,2.8,3.6,4.9,4.4c0.3,0.2,0.7,0.3,1,0.5c0.8,0.4,1.6,0.8,2.4,1.3
		c2.5,1.3,5.2,1.8,8,1c2.6-0.7,4.8-2.5,6.2-4.7c2-3.3,1.7-7.7-0.2-10.9c-1.1-4.1-4.9-7.4-9.3-7.4C70.3,78.1,70.2,78.1,70.1,78.1
		L70.1,78.1L70.1,78.1z"/>
	<path style="fill:#EDF0F4;" d="M637.3,237.2c-0.3,0.2-0.6,0.5-0.9,0.8c-0.5,0.5-0.8,0.9-1.1,1.5c-0.5,0.9-0.8,1.8-0.9,2.8
		c-0.3,0.6-0.6,1.3-0.9,2c-0.7,1.7-0.5,4.2,0.6,5.8c1,1.5,2.3,2.6,4.1,3.2c1.7,0.5,3.7,0.2,5.3-0.7c2.3-1.3,3.2-3.5,4.1-5.7
		c0.2-0.4,0.3-0.8,0.4-1.3c0-0.1,0-0.2,0.1-0.2c0.2-0.2,0.2-0.4,0.4-0.6c1.8-3.2,0.8-7.3-2.4-9.1c-1-0.6-2.1-0.9-3.3-0.9
		C640.7,234.6,638.6,235.6,637.3,237.2L637.3,237.2L637.3,237.2z"/>
	<path style="fill:#EDF0F4;" d="M1143,118.3c-4.1-1.5-8.3-2.7-12.7-3.6c-1.6-0.3-3.2-0.6-4.9-0.9c-2.5-0.4-5.1-0.3-7.8-0.3
		c-1.7,0-3.3,0.3-4.9,0.6c-2.5,0.6-5.1,1.2-7.4,2.1c-1.7,0.6-3.3,1.7-4.8,2.5c-1.5,0.9-2.8,2.4-3.9,3.6c-0.7,0.8-2.1,3.5-2.1,3.5
		c-0.6,1.3-0.9,2.8-1.2,4.1c-0.6,2.8,0.2,5.5,0.9,8.1c0.5,1.8,1.6,3.4,2.5,5.1c0.3,0.5,0.7,0.9,1.1,1.3c0.9,1.1,2.1,2.2,3.1,3.2
		c0.3,0.3,0.6,0.7,1,1c2.5,2.4,5.2,4.4,7.8,6.7c0.6,0.6,1.1,1.3,1.6,2.1c0.2,0.3,0.2,0.6,0.3,0.9c0.2,1.5,0.4,2.9,0.6,4.4
		c-2.7-0.2-5.4-0.6-8.1-1.3c-3.8-1.2-7.5-2.4-11.5-3.1c-2.7-0.5-5.5-0.4-8.2-0.3c-0.9,0-1.7,0.2-2.5,0.3c-1.4,0.3-2.8,0.7-4.3,1.1
		c-0.4,0.1-0.8,0.3-1.2,0.5c-1.5,0.6-2.8,1.5-4.2,2.3c-2.4,1.4-4.3,3.6-6.2,5.5c-0.6,0.6-1.1,1.3-1.5,2c-1.1,1.7-2.2,3.4-2.8,5.3
		c-0.4,1.3-0.9,2.9-1.1,4.3c-0.2,1.3-0.1,3.7-0.1,4.4c0,0.6,0.1,1,0.2,1.5c0.3,1.7,0.8,3.4,1.3,5c0.9,2.5,2.4,4.8,3.8,7
		c0.9,1.3,1.9,2.6,3,3.9c1.2,1.3,2.5,2.7,3.6,4c1.1,1.4,2.1,2.8,3,4.3c1.4,2.5,2.9,4.8,4.3,7.3c1.1,2.1,2.1,4.3,2.8,6.5l-0.1,0.1
		c-0.6,0.2-1.3,0.5-1.9,0.7c-1.1,0.2-2.3,0.4-3.5,0.5c-1.5-0.2-2.9-0.4-4.4-0.7c-1.6-0.6-3.2-1.1-4.7-1.8c-2.1-1-4.2-2.4-6.3-3.4
		c-5.4-2.5-12.2-0.4-15.7,4.1c-2.2,2.8-3.2,6.3-2.8,9.9c0.4,3.6,2.3,6.6,5.1,8.9c2.4,1.9,5.1,3.3,7.7,4.7c1.4,0.8,2.9,1.5,4.5,2.1
		c6.6,2.5,13.8,4,20.9,3.2c3.1-0.3,6.2-1.2,9.3-2.1c1-0.3,2-0.7,2.9-1.2c2-0.9,4-2.1,5.7-3.3s3.2-2.8,4.7-4.3
		c0.7-0.7,1.3-1.5,1.7-2.4c1-1.7,2.1-3.3,2.8-5.2c0.7-1.9,1.3-4,1.5-6s0.2-4,0-6c-0.2-1.7-0.8-3.4-1.3-5.1c-0.2-0.9-0.6-1.7-0.9-2.7
		c-0.6-1.5-1.2-3-1.9-4.5c-1.6-3.4-3.5-6.6-5.5-9.8c-1.4-2.4-2.8-4.7-4.3-7.1c-1.4-2.3-3.3-4.3-5.1-6.2l0,0c0.1,0,0.1,0,0.2,0
		c3.6,1.1,7,2.3,10.7,2.9c5.9,1.1,12.1,1.6,18,0.4c1.9-0.4,3.9-0.8,5.7-1.6c2-0.8,3.9-1.9,5.5-3.2c1.5-1.2,3.1-2.7,4.1-4.3
		c0.8-1.3,1.6-2.5,2.2-4c0.6-1.3,1.1-3.6,1.3-4.7c0.6-3,0.4-6.2,0.2-9.3c-0.1-1.7-0.2-3.2-0.4-4.8c-0.3-2.8-1.1-5.5-1.9-8.1
		c-0.1-0.4-0.2-0.7-0.4-1.1c-0.7-1.8-1.8-3.6-2.8-5.2c-0.5-0.8-1-1.6-1.7-2.3c-1.3-1.6-2.8-3-4.3-4.5c-0.3-0.3-0.6-0.6-0.9-0.9
		c1.7,0.2,3.4,0.3,5.1,0.6c1.2,0.4,2.3,0.7,3.4,1.1c2.5,0.9,5.1,1.1,7.6,0.1s4.6-3,5.6-5.5s1-5.2,0.1-7.6c-0.6-1.7-1.8-3.2-3.2-4.3
		C1144.5,119.1,1143.8,118.6,1143,118.3L1143,118.3L1143,118.3z M1094.5,126L1094.5,126L1094.5,126L1094.5,126L1094.5,126z"/>
	<path style="fill:#EDF0F4;" d="M635.4,474.4c-4.1-1.5-8.3-2.7-12.7-3.6c-1.6-0.3-3.2-0.6-4.9-0.9c-2.5-0.4-5.1-0.3-7.8-0.3
		c-1.7,0-3.3,0.3-4.9,0.6c-2.5,0.6-5.1,1.2-7.4,2.1c-1.7,0.6-3.3,1.7-4.8,2.5c-1.5,0.9-2.8,2.4-3.9,3.6c-0.7,0.8-2.1,3.5-2.1,3.5
		c-0.6,1.3-0.9,2.8-1.2,4.1c-0.6,2.8,0.2,5.5,0.9,8.1c0.5,1.8,1.6,3.4,2.5,5.1c0.3,0.5,0.7,0.9,1.1,1.3c0.9,1.1,2.1,2.2,3.1,3.2
		c0.3,0.3,0.6,0.7,1,1c2.5,2.4,5.2,4.4,7.8,6.7c0.6,0.6,1.1,1.3,1.6,2.1c0.2,0.3,0.2,0.6,0.3,0.9c0.2,1.5,0.4,2.9,0.6,4.4
		c-2.7-0.2-5.4-0.6-8.1-1.3c-3.8-1.2-7.5-2.4-11.5-3.1c-2.7-0.5-5.5-0.4-8.2-0.3c-0.9,0-1.7,0.2-2.5,0.3c-1.4,0.3-2.8,0.7-4.3,1.1
		c-0.4,0.1-0.8,0.3-1.2,0.5c-1.5,0.6-2.8,1.5-4.2,2.3c-2.4,1.4-4.3,3.6-6.2,5.5c-0.6,0.6-1.1,1.3-1.5,2c-1.1,1.7-2.2,3.4-2.8,5.3
		c-0.4,1.3-0.9,2.9-1.1,4.3c-0.2,1.3-0.1,3.7-0.1,4.4c0,0.6,0.1,1,0.2,1.5c0.3,1.7,0.8,3.4,1.3,5c0.9,2.5,2.4,4.8,3.8,7
		c0.9,1.3,1.9,2.6,3,3.9c1.2,1.3,2.5,2.7,3.6,4c1.1,1.4,2.1,2.8,3,4.3c1.4,2.5,2.9,4.8,4.3,7.3c1.1,2.1,2.1,4.3,2.8,6.5l-0.1,0.1
		c-0.6,0.2-1.3,0.5-1.9,0.7c-1.1,0.2-2.3,0.4-3.5,0.5c-1.5-0.2-2.9-0.4-4.4-0.7c-1.6-0.6-3.2-1.1-4.7-1.8c-2.1-1-4.2-2.4-6.3-3.4
		c-5.4-2.5-12.2-0.4-15.7,4.1c-2.2,2.8-3.2,6.3-2.8,9.9c0.4,3.6,2.3,6.6,5.1,8.9c2.4,1.9,5.1,3.3,7.7,4.7c1.4,0.8,2.9,1.5,4.5,2.1
		c6.6,2.5,13.8,4,20.9,3.2c3.1-0.3,6.2-1.2,9.3-2.1c1-0.3,2-0.7,2.9-1.2c2-0.9,4-2.1,5.7-3.3s3.2-2.8,4.7-4.3
		c0.7-0.7,1.3-1.5,1.7-2.4c1-1.7,2.1-3.3,2.8-5.2c0.7-1.9,1.3-4,1.5-6s0.2-4,0-6c-0.2-1.7-0.8-3.4-1.3-5.1c-0.2-0.9-0.6-1.7-0.9-2.7
		c-0.6-1.5-1.2-3-1.9-4.5c-1.6-3.4-3.5-6.6-5.5-9.8c-1.4-2.4-2.8-4.7-4.3-7.1c-1.4-2.3-3.3-4.3-5.1-6.2l0,0c0.1,0,0.1,0,0.2,0
		c3.6,1.1,7,2.3,10.7,2.9c5.9,1.1,12.1,1.6,18,0.4c1.9-0.4,3.9-0.8,5.7-1.6c2-0.8,3.9-1.9,5.5-3.2c1.5-1.2,3.1-2.7,4.1-4.3
		c0.8-1.3,1.6-2.5,2.2-4c0.6-1.3,1.1-3.6,1.3-4.7c0.6-3,0.4-6.2,0.2-9.3c-0.1-1.7-0.2-3.2-0.4-4.8c-0.3-2.8-1.1-5.5-1.9-8.1
		c-0.1-0.4-0.2-0.7-0.4-1.1c-0.7-1.8-1.8-3.6-2.8-5.2c-0.5-0.8-1-1.6-1.7-2.3c-1.3-1.6-2.8-3-4.3-4.5c-0.3-0.3-0.6-0.6-0.9-0.9
		c1.7,0.2,3.4,0.3,5.1,0.6c1.2,0.4,2.3,0.7,3.4,1.1c2.5,0.9,5.1,1.1,7.6,0.1s4.6-3,5.6-5.5s1-5.2,0.1-7.6c-0.6-1.7-1.8-3.2-3.2-4.3
		C636.9,475.2,636.2,474.7,635.4,474.4L635.4,474.4L635.4,474.4z M586.9,482.1L586.9,482.1L586.9,482.1L586.9,482.1L586.9,482.1z"/>
	<path style="fill:#EDF0F4;" d="M853.9,225.9c0,2.8,2.4,5.2,5.2,5.2s5.2-2.4,5.2-5.2s-2.4-5.2-5.2-5.2
		C856.3,220.7,853.9,223.1,853.9,225.9L853.9,225.9L853.9,225.9z"/>
</g>
</svg>
